<?xml version="1.0" encoding="UTF-8" standalone="no"?>
<!-- Created with Inkscape (http://www.inkscape.org/) -->

<svg     class="style-svg"
   version="1.1"
   id="svg3423"
   width="666.66669"
   height="666.66669"
   viewBox="0 0 666.66669 666.66669"
   sodipodi:docname="2.svg"
   inkscape:version="1.2.2 (b0a8486, 2022-12-01)"
   xmlns:inkscape="http://www.inkscape.org/namespaces/inkscape"
   xmlns:sodipodi="http://sodipodi.sourceforge.net/DTD/sodipodi-0.dtd"
   xmlns="http://www.w3.org/2000/svg"
   xmlns:svg="http://www.w3.org/2000/svg">

    <g
     id="g3431"
     inkscape:groupmode="layer"
     inkscape:label="Page 1"
     transform="matrix(1.3333333,0,0,-1.3333333,0,666.66667)">
    <g
       id="g3433">
      <g
         id="g3435"
         clip-path="url(#clipPath3439)">
        <g
           id="g3441"
           transform="translate(352.644,261.728)">
          <path
             d="M 0,0 C -1.335,3.927 -3.221,4.713 -6.52,2.906 -7.069,2.592 -7.619,2.199 -8.169,1.807 c -5.027,-4.085 -8.876,-9.112 -11.39,-15.082 -0.628,-1.492 -0.942,-3.142 -1.021,-4.713 -0.078,-2.199 1.257,-2.985 3.142,-1.728 1.335,0.864 2.592,1.964 3.613,3.142 C -9.19,-11.076 -4.634,-5.577 0,0 m -93.552,-3.142 c -3.613,-2.357 -7.148,-4.399 -10.368,-6.834 -2.671,-1.963 -4.713,-4.556 -5.813,-7.855 -0.706,-2.199 -0.785,-4.32 0.943,-6.127 1.807,-1.885 4.084,-1.806 6.362,-1.021 6.049,1.964 10.212,7.541 10.683,14.061 0.157,2.592 0,5.106 -1.807,7.776 m -103.684,-7.384 c 6.205,0.943 11.782,9.348 10.761,14.453 -5.42,-2.906 -8.012,-8.483 -10.761,-14.453 m 289.295,-0.628 c 0,-1.1 -0.314,-2.278 -0.864,-3.221 -3.927,-6.284 -9.269,-11.075 -16.259,-13.667 -6.285,-2.278 -11.39,-0.236 -14.689,5.655 -1.65,2.985 -2.278,6.206 -2.435,9.583 -0.157,1.886 -0.157,3.849 -0.55,5.656 -0.471,2.435 -2.042,3.22 -4.163,1.963 -2.2,-1.256 -4.32,-2.827 -6.048,-4.634 -4.085,-4.242 -7.777,-8.797 -11.704,-13.196 -1.65,-1.885 -3.456,-3.77 -5.263,-5.577 -0.707,-0.707 -1.571,-1.335 -2.435,-1.885 -2.985,-1.807 -5.106,-1.335 -6.991,1.649 -1.099,1.728 -1.728,3.614 -1.728,5.656 v 3.692 c -0.785,-0.628 -1.335,-1.1 -1.885,-1.571 -9.426,-8.876 -17.909,-18.538 -26,-28.671 -0.707,-0.863 -1.256,-1.885 -1.728,-2.906 -4.163,-8.64 -8.247,-17.359 -12.489,-25.921 -1.728,-3.534 -3.692,-6.912 -5.813,-10.133 -1.728,-2.592 -4.241,-4.241 -7.383,-4.948 -3.456,-0.786 -6.049,1.256 -5.341,4.791 0.549,2.906 1.57,5.891 3.063,8.484 3.927,6.912 8.248,13.667 12.411,20.422 1.335,2.042 2.749,4.085 4.241,6.048 4.006,5.106 7.07,10.761 9.661,16.731 4.242,9.819 8.72,19.559 13.04,29.378 0.235,0.628 0.471,1.335 0.314,2.277 -1.257,-1.492 -2.514,-2.984 -3.771,-4.477 -2.906,-3.299 -5.733,-6.676 -8.64,-9.897 -1.335,-1.492 -2.827,-2.749 -4.32,-4.085 -3.849,-3.456 -8.561,-3.691 -12.489,0.786 -0.786,-0.628 -1.492,-1.335 -2.278,-1.964 -2.828,-2.435 -5.891,-4.477 -9.583,-5.341 -4.792,-1.178 -8.405,0.864 -9.347,5.734 -0.55,2.906 -0.236,6.048 -0.236,9.033 0,0.942 0.314,1.807 0,2.828 -2.199,-2.749 -4.242,-5.499 -6.52,-8.169 -2.042,-2.357 -4.163,-4.713 -6.519,-6.756 -1.65,-1.335 -3.613,-2.435 -5.655,-3.141 -4.792,-1.572 -8.72,0.864 -9.348,5.812 -0.314,2.907 -0.157,5.891 0.236,8.798 0.392,2.513 1.178,4.948 2.042,7.383 0.785,2.357 1.885,4.556 2.828,6.834 -2.985,2.121 -9.976,2.671 -14.375,1.178 0.079,-0.55 0.079,-1.099 0.236,-1.571 3.142,-9.661 -3.534,-23.093 -13.117,-27.335 -1.886,-0.864 -4.164,-1.414 -6.285,-1.492 -5.105,-0.236 -9.268,2.828 -10.839,7.619 -0.157,0.55 -0.314,1.021 -0.55,1.885 -0.785,-0.628 -1.335,-1.178 -1.885,-1.571 -2.828,-1.964 -5.656,-4.163 -8.641,-5.891 -1.649,-1.021 -3.692,-1.492 -5.655,-1.806 -5.813,-0.864 -10.369,2.906 -10.526,8.797 -0.078,3.299 0.472,6.598 0.629,9.897 0.078,1.964 0.078,4.006 -0.314,5.891 -0.629,2.907 -2.514,3.849 -5.106,2.514 -2.042,-1.021 -4.163,-2.357 -5.813,-4.006 -4.948,-5.027 -9.661,-10.368 -14.453,-15.631 -1.649,-1.885 -3.142,-3.849 -4.712,-5.734 -1.807,-2.121 -3.142,-2.592 -4.949,-1.886 -1.493,0.629 -3.221,2.357 -2.75,5.106 0,0.157 0,0.314 -0.078,0.55 -1.728,-1.571 -3.613,-2.985 -5.577,-4.242 -3.77,-2.356 -7.698,-3.77 -12.018,-3.22 -5.655,0.707 -8.797,4.791 -9.033,11.625 v 2.749 h -9.976 c -16.102,0.079 -32.048,2.514 -47.993,4.792 -10.447,1.492 -20.973,2.827 -31.498,3.456 -6.519,0.393 -13.039,-1.335 -18.773,-5.498 -2.042,-1.493 -3.77,-3.849 -5.342,-6.049 -1.335,-1.806 -2.513,-2.356 -5.262,-1.178 0.785,6.441 4.006,10.368 8.562,13.196 8.876,5.577 18.459,6.284 28.12,5.263 16.417,-1.728 32.755,-4.32 49.172,-6.048 10.682,-1.178 21.443,-1.414 32.126,-2.121 1.414,-0.079 2.043,0.549 2.592,2.199 2.435,7.62 6.284,14.06 12.254,18.302 1.649,1.178 3.534,2.042 5.42,2.435 5.576,1.257 9.426,-3.928 7.776,-10.526 -1.493,-6.048 -5.106,-10.211 -9.504,-13.195 -2.279,-1.493 -4.87,-2.357 -7.305,-3.457 -0.236,-0.157 -0.865,-0.235 -0.865,-0.393 -0.156,-2.277 -0.471,-4.555 -0.314,-6.833 0.158,-2.043 1.571,-2.985 3.064,-2.75 2.356,0.472 4.791,0.943 6.912,2.2 5.42,3.142 9.897,7.776 13.903,13.039 0.079,0.236 0.236,0.471 0.314,0.707 0.236,0.55 0.55,1.1 0.786,1.65 2.749,6.205 5.42,12.332 8.09,18.537 0.629,1.257 1.257,2.278 2.671,2.749 2.906,0.943 5.499,-1.099 5.027,-4.163 -0.079,-0.864 -0.471,-1.807 -0.864,-2.671 -2.356,-5.027 -4.791,-10.133 -7.148,-15.159 -0.471,-1.021 -0.864,-1.964 -1.335,-2.985 0.157,-0.158 0.392,-0.236 0.55,-0.393 0.864,0.864 1.806,1.728 2.749,2.592 3.691,3.613 7.305,7.384 11.782,10.211 2.907,1.807 5.97,2.985 9.426,2.828 4.792,-0.157 8.248,-3.063 8.64,-7.776 0.236,-3.063 -0.078,-6.205 -0.235,-9.348 -0.079,-2.042 -0.472,-4.163 -0.315,-6.205 0.236,-4.006 2.671,-5.498 6.206,-3.456 2.435,1.414 4.791,3.221 6.677,5.263 2.513,2.67 4.555,5.813 6.755,8.797 0.471,0.629 0.864,1.571 0.942,2.357 0.629,4.555 3.299,7.619 7.07,9.818 4.948,2.907 10.211,4.085 15.866,2.514 0.708,-0.157 1.493,-0.314 2.2,-0.157 6.755,1.649 13.51,1.728 20.58,0.235 0.706,1.021 1.413,2.121 2.12,3.221 1.493,2.199 3.849,2.828 6.206,1.65 2.356,-1.1 2.828,-2.907 1.257,-5.028 -3.692,-5.105 -6.756,-10.525 -9.033,-16.416 -1.022,-2.593 -1.728,-5.263 -2.357,-7.934 -0.393,-1.413 -0.55,-3.141 0.943,-4.163 1.492,-1.1 2.906,-0.079 4.163,0.707 4.005,2.671 7.226,6.127 9.739,10.212 3.693,6.048 7.227,12.253 10.84,18.38 0.551,0.864 1.022,1.728 1.571,2.435 1.65,2.042 4.478,2.435 6.599,0.864 1.728,-1.257 2.199,-3.142 1.335,-4.949 -2.278,-4.948 -4.32,-9.897 -6.205,-15.002 -0.943,-2.671 -1.336,-5.499 -1.807,-8.327 -0.236,-1.57 -0.236,-3.377 1.414,-4.32 1.728,-1.021 3.377,-0.079 4.713,0.943 4.242,3.22 7.854,6.912 9.661,12.253 2.435,7.227 7.305,12.882 13.196,17.517 1.414,1.178 3.221,1.963 5.028,2.592 4.712,1.571 8.483,0.157 11.467,-3.849 0.158,-0.236 0.393,-0.393 0.786,-0.864 1.414,2.042 2.749,3.928 4.006,5.891 0.55,0.864 1.021,1.807 1.65,2.671 1.492,1.963 3.534,2.435 5.498,1.335 1.885,-1.1 2.357,-2.749 1.257,-5.184 -2.907,-6.52 -5.813,-12.961 -8.719,-19.48 -4.163,-9.269 -8.326,-18.538 -12.489,-27.806 -0.236,-0.629 -0.472,-1.179 -0.472,-2.043 0.472,0.471 1.021,0.943 1.493,1.414 6.441,7.148 12.803,14.296 19.244,21.444 1.964,2.121 3.928,4.32 6.127,6.284 1.335,1.257 2.042,2.592 2.671,4.241 8.012,21.758 17.752,42.652 30.241,62.132 3.063,4.792 6.755,9.191 10.133,13.746 1.099,1.414 2.435,2.043 4.241,1.493 2.828,-0.864 3.849,-3.692 1.886,-6.284 C 65.981,59.226 62.446,54.434 59.304,49.486 48.229,32.205 38.253,14.296 30.791,-4.87 c -2.042,-5.184 -3.692,-10.369 -4.556,-15.867 -0.157,-1.021 -0.235,-2.121 -0.314,-3.221 0.236,-0.078 0.393,-0.235 0.628,-0.313 2.514,2.67 5.106,5.262 7.541,8.011 2.907,3.221 5.656,6.677 8.64,9.819 2.357,2.513 4.871,4.792 7.462,6.991 1.336,1.021 2.828,1.885 4.399,2.592 3.771,1.571 7.384,0.314 9.034,-3.456 0.863,-1.964 1.178,-4.164 1.57,-6.284 0.315,-1.885 0.236,-3.849 0.707,-5.656 0.707,-2.513 1.493,-5.105 2.749,-7.383 1.807,-3.142 4.635,-3.849 7.777,-1.964 1.806,1.1 3.456,2.435 4.87,3.928 1.964,1.963 3.535,4.241 5.263,6.362 0.628,0.707 1.178,1.571 1.963,2.042 1.728,1.1 3.614,0.157 3.535,-1.885 m 25.136,37.782 c -0.315,1.1 -1.257,2.906 -2.592,3.063 -1.1,0.158 -2.671,-0.942 -3.614,-1.571 C 100.935,21.679 93.395,11.075 89.388,0 c 4.556,1.414 8.955,3.299 12.961,5.891 5.027,3.22 9.426,7.462 12.489,12.568 1.493,2.356 3.064,5.341 2.357,8.169 M 86.796,36.29 c -0.392,1.335 -0.942,2.749 -1.728,3.927 -0.471,0.864 -1.794,1.818 -2.815,1.818 -0.707,-0.078 -2.055,-1.268 -2.369,-1.975 -0.55,-1.257 -0.785,-2.592 -1.021,-3.928 -1.65,-10.761 3.534,-20.579 7.698,-30.162 1.1,4.32 1.806,8.718 2.042,13.117 0.314,5.734 -0.157,11.625 -1.807,17.203 M 119.394,19.009 C 112.875,7.933 101.014,1.807 88.917,-1.571 87.66,-1.885 86.482,-2.2 85.226,-2.514 l -0.629,1.257 -0.707,1.571 c -2.906,7.698 -7.148,15.003 -9.112,23.093 -0.785,3.3 -1.178,6.756 -0.942,10.212 0.235,2.671 0.706,5.812 2.514,7.933 1.806,2.121 4.166,3.511 6.836,3.354 3.064,-0.157 5.888,-2.725 7.224,-5.396 2.827,-5.734 3.142,-13.197 2.827,-19.48 -0.078,-1.885 -0.314,-3.771 -0.549,-5.577 1.492,2.042 3.142,4.006 4.948,5.891 4.556,4.713 10.3,11.218 17.055,12.003 2.828,0.314 5.645,-1.399 6.824,-4.305 1.256,-3.063 -0.472,-6.363 -2.121,-9.033 M 1.728,42.652 C 1.807,40.217 1.649,37.782 1.807,35.347 2.042,33.461 2.042,31.655 1.885,29.77 1.807,29.22 1.964,28.67 2.278,28.277 2.828,27.728 3.535,27.492 4.32,27.57 h 6.834 c 2.435,0.079 4.87,-0.235 7.305,0 0.707,0 1.335,0.315 1.728,0.943 1.178,2.042 0.157,3.849 -2.042,4.006 h -0.707 c -2.75,-0.236 -2.121,0.079 -8.248,0.079 -0.393,0 -0.864,0.078 -1.178,0.314 -0.55,0.393 -0.943,1.021 -1.021,1.728 -0.079,1.1 -0.158,2.199 -0.236,3.299 -0.078,1.728 0.393,2.278 2.2,2.278 h 5.733 c 0.786,0 1.493,0.078 2.278,0.157 1.336,0.235 1.572,0.628 1.572,1.885 0,0.314 -0.079,0.55 -0.079,0.864 -0.157,1.414 -0.628,1.885 -2.121,1.964 h -3.535 c -1.492,0 -3.063,-0.079 -4.555,0 -1.179,0.079 -1.415,0.314 -1.336,1.492 0.079,1.022 0.079,1.964 0,2.985 -0.079,2.278 0.236,2.592 2.592,2.592 2.435,0 4.871,0.236 7.306,0 0.628,-0.078 1.256,0 1.885,0.157 0.864,0.158 1.571,0.55 1.571,1.571 -0.079,1.1 0.314,2.357 -0.943,3.142 -0.314,0.158 -0.707,0.236 -1.021,0.236 -0.471,0 -0.943,-0.078 -1.414,-0.078 -2.042,-0.158 -4.006,-0.236 -5.97,-0.158 C 8.483,57.184 6.048,57.184 3.613,56.948 1.649,56.791 1.1,56.319 1.335,54.355 1.728,50.428 1.728,46.579 1.728,42.652 m -27.178,1.335 c 0,-0.864 0.55,-1.099 1.257,-1.099 1.964,0.078 3.849,0.078 5.813,0.156 0.785,0.079 1.57,0.315 2.277,0.786 1.571,1.1 2.357,2.985 2.043,4.87 -0.393,1.571 -1.807,2.749 -3.457,2.906 -2.434,0.079 -4.869,0 -7.54,0 -0.157,-2.67 -0.314,-5.184 -0.393,-7.619 m -5.577,9.034 c -0.078,3.613 0.314,4.084 3.927,4.084 2.435,0 4.792,0.079 7.227,0 1.493,0 2.906,-0.157 4.399,-0.393 2.199,-0.471 4.163,-1.963 5.105,-4.006 0.707,-1.257 1.257,-2.67 1.65,-4.084 0.471,-2.043 0.078,-4.164 -1.021,-5.892 -1.1,-1.728 -2.906,-2.984 -4.948,-3.456 -0.708,-0.157 -1.493,-0.314 -2.279,-0.471 0.472,-1.257 1.179,-2.435 2.121,-3.456 1.571,-1.964 3.142,-3.928 4.635,-5.891 0.549,-0.707 1.099,-1.414 0.785,-2.514 -1.414,0 -2.906,-0.078 -4.32,0.079 -0.55,0.157 -1.021,0.549 -1.336,1.021 -2.435,3.063 -4.87,6.205 -7.226,9.269 -0.471,0.628 -0.942,1.099 -1.806,0.942 -0.786,-0.157 -1.336,-0.942 -1.257,-1.728 -0.079,-2.042 -0.157,-4.085 -0.079,-6.205 0.157,-2.906 -0.078,-3.142 -2.985,-3.064 -1.806,0 -2.277,0.393 -2.277,2.121 -0.079,4.87 -0.079,9.74 -0.158,14.61 0,2.985 -0.078,5.97 -0.157,9.034 M -57.733,38.567 c 0.942,-0.157 1.885,-0.157 2.356,-0.235 1.1,0.078 1.807,0 2.514,0.078 0.785,0.079 1.178,0.55 0.942,1.257 -0.707,2.121 -1.649,4.242 -2.749,6.206 -0.471,0.785 -0.864,0.785 -1.178,-0.079 -0.864,-1.964 -1.728,-3.928 -2.592,-5.891 -0.393,-0.864 -0.236,-1.178 0.707,-1.336 m -11.94,-9.504 c 0.157,0.864 0.393,1.728 0.864,2.435 1.021,2.121 1.885,4.242 2.671,6.441 0.785,2.278 1.806,4.398 2.985,6.441 1.728,3.063 3.142,6.205 4.399,9.504 0.078,0.236 0.156,0.471 0.235,0.629 0.864,2.435 1.885,2.985 4.399,2.592 0.707,-0.079 1.335,-0.55 1.571,-1.257 2.278,-4.634 4.791,-9.19 6.205,-14.217 0.55,-1.571 1.257,-3.142 2.199,-4.556 1.179,-2.278 2.278,-4.556 3.221,-6.991 0.157,-0.393 0.314,-0.786 0.314,-1.178 0,-0.157 0,-0.55 -0.235,-0.786 -0.157,-0.314 -0.472,-0.471 -0.786,-0.471 -0.864,-0.235 -1.728,-0.393 -2.671,-0.393 -1.492,-0.157 -2.906,0.629 -3.613,1.886 -0.393,0.549 -0.785,1.178 -0.942,1.806 -0.472,1.65 -1.571,2.199 -3.143,2.199 -2.513,0 -5.026,0.079 -7.54,0 -1.178,0 -2.278,-0.707 -2.671,-1.885 -0.314,-0.785 -0.55,-1.649 -0.942,-2.435 -0.864,-1.885 -4.399,-2.67 -6.049,-1.335 -0.471,0.393 -0.628,1.021 -0.471,1.571 m -50.192,10.211 c 0.157,-2.749 0.235,-4.163 0.942,-5.813 1.414,-3.534 3.692,-5.969 7.462,-6.99 3.064,-0.785 6.206,-0.471 9.033,0.943 3.378,1.413 5.735,4.634 6.049,8.326 0.707,5.655 0.078,11.389 0.235,17.045 0.079,3.063 -0.471,3.377 -3.534,3.22 -1.572,-0.078 -2.043,-0.471 -1.964,-2.042 0.157,-2.514 -0.157,-4.949 -0.236,-7.463 -0.157,-3.062 -0.079,-6.047 -0.079,-9.111 0,-2.199 -0.314,-2.671 -0.471,-3.063 -0.942,-1.964 -2.827,-3.299 -4.948,-3.456 -2.042,0 -3.928,0.942 -5.185,2.513 -0.785,0.943 -1.256,2.121 -1.413,3.299 -0.236,2.357 -0.393,4.792 -0.315,7.148 -0.078,3.299 0.079,6.677 0.079,9.976 0,1.964 -0.314,2.277 -2.199,2.277 -2.592,0 -3.299,0.629 -3.456,-3.298 -0.079,-2.514 0,-5.028 0,-7.541 -0.157,-2.042 -0.157,-4.006 0,-5.97 m -31.106,-5.734 c 0.393,-0.235 0.786,-0.55 1.179,-0.785 5.891,-3.064 12.96,-0.471 14.217,7.305 0.314,2.121 -0.55,3.849 -1.492,5.577 -1.807,3.299 -4.399,5.184 -8.248,5.105 -0.864,0 -1.728,-0.078 -2.592,-0.235 -4.006,-1.178 -6.206,-3.928 -6.912,-7.934 -0.707,-3.848 0.156,-7.069 3.848,-9.033 m -6.127,-2.513 c -5.262,5.812 -4.634,13.51 -0.942,19.401 0.393,0.629 0.864,1.1 1.335,1.571 2.514,2.043 5.027,4.084 8.327,4.556 4.398,0.55 8.561,0 12.174,-2.906 3.221,-2.514 5.42,-6.048 6.285,-9.976 1.177,-6.048 -1.414,-12.096 -6.599,-15.238 -2.984,-1.807 -6.284,-2.357 -10.29,-2.514 -3.77,0.157 -7.305,1.807 -10.29,5.106 m -37.939,22.621 c -0.785,1.336 -0.392,1.886 1.1,2.122 0.393,0.078 0.786,0.078 1.257,0.078 1.649,0.235 2.671,-0.393 3.613,-1.806 1.964,-2.828 3.771,-5.735 6.127,-8.484 1.492,1.728 2.828,3.613 4.006,5.577 0.707,1.178 1.414,2.278 2.121,3.456 0.55,1.1 1.728,1.65 2.984,1.414 0.55,-0.078 1.179,-0.078 1.729,-0.235 1.492,-0.315 1.963,-1.257 1.021,-2.671 -0.786,-1.179 -1.728,-2.357 -2.592,-3.535 -2.042,-2.828 -4.006,-5.577 -5.97,-8.404 -0.55,-0.707 -0.864,-1.65 -0.785,-2.593 0.078,-2.906 0.078,-5.812 0.078,-8.718 v -2.121 c -0.157,-1.571 -0.707,-2.121 -2.278,-1.964 -2.906,0.236 -3.849,0.471 -3.535,3.77 0.315,3.142 0.236,6.284 0.236,9.426 0,0.943 -0.236,1.807 -0.785,2.592 -2.042,2.749 -4.006,5.577 -5.97,8.405 -0.864,1.178 -1.65,2.435 -2.357,3.691"
             style="fill-opacity:1;fill-rule:nonzero;stroke:none"
             id="path3443" />
        </g>
      </g>
    </g>
  </g>
</svg>
